<svg width="1600" height="900" viewBox="0 0 1600 900" fill="none" xmlns="http://www.w3.org/2000/svg">
  <rect width="1600" height="900" fill="#F5F6F7"/>
  <rect x="140" y="140" width="1320" height="620" rx="28" fill="#FFFFFF" stroke="#D9DDE1" stroke-width="4"/>
  <rect x="200" y="220" width="920" height="34" rx="10" fill="#E9EDF1"/>
  <rect x="200" y="274" width="760" height="26" rx="9" fill="#EEF1F4"/>
  <rect x="200" y="332" width="1160" height="248" rx="18" fill="#F9FBFC" stroke="#E2E6EA" stroke-width="3"/>
  <rect x="220" y="360" width="880" height="24" rx="8" fill="#E8EDF2"/>
  <rect x="220" y="400" width="1030" height="24" rx="8" fill="#EDF2F6"/>
  <rect x="220" y="440" width="840" height="24" rx="8" fill="#E8EDF2"/>
  <rect x="220" y="480" width="920" height="24" rx="8" fill="#EDF2F6"/>
  <rect x="220" y="520" width="760" height="24" rx="8" fill="#E8EDF2"/>

  <rect x="200" y="622" width="1200" height="78" rx="16" fill="#121417"/>

  <circle cx="270" cy="661" r="20" fill="#FFFFFF" fill-opacity="0.96"/>
  <rect x="258" y="651" width="24" height="20" rx="4" fill="#121417"/>
  <rect x="264" y="643" width="12" height="6" rx="3" fill="#121417"/>

  <circle cx="370" cy="661" r="20" fill="#FFFFFF" fill-opacity="0.96"/>
  <path d="M362 668L378 652" stroke="#121417" stroke-width="4" stroke-linecap="round"/>
  <path d="M370 652H378V660" stroke="#121417" stroke-width="4" stroke-linecap="round" stroke-linejoin="round"/>

  <circle cx="470" cy="661" r="20" fill="#FFFFFF" fill-opacity="0.96"/>
  <path d="M458 661H482" stroke="#121417" stroke-width="4" stroke-linecap="round"/>
  <path d="M470 649V673" stroke="#121417" stroke-width="4" stroke-linecap="round"/>

  <circle cx="570" cy="661" r="20" fill="#FFFFFF" fill-opacity="0.96"/>
  <path d="M558 661H582" stroke="#121417" stroke-width="4" stroke-linecap="round"/>

  <circle cx="670" cy="661" r="20" fill="#FFFFFF" fill-opacity="0.96"/>
  <path d="M660 654L670 668L680 654" stroke="#121417" stroke-width="4" stroke-linecap="round" stroke-linejoin="round"/>

  <rect x="1030" y="642" width="170" height="38" rx="12" fill="#FFFFFF" fill-opacity="0.9"/>
  <rect x="1220" y="642" width="160" height="38" rx="12" fill="#78B8FF"/>
</svg>
