<svg width="1600" height="900" viewBox="0 0 1600 900" fill="none" xmlns="http://www.w3.org/2000/svg">
  <rect width="1600" height="900" fill="#F5F6F8"/>
  <rect x="120" y="120" width="1360" height="660" rx="26" fill="#FFFFFF" stroke="#D6DCE2" stroke-width="4"/>

  <rect x="170" y="180" width="590" height="540" rx="18" fill="#11161D"/>
  <rect x="760" y="180" width="670" height="540" rx="18" fill="#FBFCFD" stroke="#E1E6EC" stroke-width="3"/>

  <rect x="205" y="226" width="150" height="14" rx="7" fill="#3B4553"/>
  <rect x="205" y="262" width="230" height="14" rx="7" fill="#2F99D8"/>
  <rect x="205" y="300" width="330" height="14" rx="7" fill="#7DAA5B"/>
  <rect x="205" y="338" width="210" height="14" rx="7" fill="#E1B966"/>
  <rect x="205" y="376" width="260" height="14" rx="7" fill="#3B4553"/>
  <rect x="205" y="414" width="360" height="14" rx="7" fill="#2F99D8"/>
  <rect x="205" y="452" width="280" height="14" rx="7" fill="#7DAA5B"/>
  <rect x="205" y="490" width="190" height="14" rx="7" fill="#E1B966"/>
  <rect x="205" y="528" width="290" height="14" rx="7" fill="#3B4553"/>

  <rect x="820" y="235" width="550" height="60" rx="14" fill="#E9EEF4"/>
  <rect x="852" y="256" width="260" height="20" rx="8" fill="#C8D6E5"/>

  <rect x="820" y="325" width="550" height="340" rx="18" fill="#FFFFFF" stroke="#DCE3EA" stroke-width="3"/>
  <rect x="860" y="365" width="240" height="170" rx="14" fill="#D9EAFE"/>
  <rect x="1120" y="365" width="210" height="26" rx="9" fill="#E8EDF2"/>
  <rect x="1120" y="405" width="180" height="26" rx="9" fill="#EDF2F6"/>
  <rect x="1120" y="445" width="200" height="26" rx="9" fill="#E8EDF2"/>
  <rect x="860" y="565" width="470" height="18" rx="7" fill="#E8EDF2"/>
  <rect x="860" y="595" width="380" height="18" rx="7" fill="#EDF2F6"/>
</svg>
